<?xml version="1.0" standalone="no"?>
<!DOCTYPE svg PUBLIC "-//W3C//DTD SVG 20010904//EN"
 "http://www.w3.org/TR/2001/REC-SVG-20010904/DTD/svg10.dtd">
<svg version="1.0" xmlns="http://www.w3.org/2000/svg"
 width="200px" height="100px" viewBox="0 0 604.000000 341.000000"
 preserveAspectRatio="xMidYMid meet">

<g transform="translate(0.000000,341.000000) scale(0.100000,-0.100000)"
fill="#000000" stroke="none">
<path d="M1680 2951 c-51 -11 -149 -49 -179 -70 -14 -9 -45 -23 -68 -29 -69
-20 -117 -68 -169 -166 -34 -66 -47 -103 -51 -147 -19 -205 161 -423 396 -482
35 -9 65 -18 68 -20 6 -6 21 -197 33 -422 8 -139 8 -248 1 -358 l-10 -158
-102 -127 c-56 -70 -128 -156 -160 -192 -72 -82 -129 -179 -129 -219 0 -22 7
-35 25 -47 38 -25 66 -7 110 68 40 67 118 170 155 203 13 11 48 54 78 95 31
41 72 94 93 118 44 50 48 66 60 247 11 165 1 470 -25 747 l-5 47 57 12 c86 17
171 61 233 121 101 96 135 188 127 340 -4 73 -10 95 -46 170 -54 111 -138 192
-247 237 -78 33 -181 46 -245 32z m188 -140 c39 -15 81 -37 95 -48 115 -90
168 -271 118 -405 -52 -135 -237 -226 -402 -196 -130 24 -270 121 -319 223
-33 67 -33 172 -1 235 45 88 92 123 180 135 34 5 59 14 70 27 24 30 90 56 142
57 30 1 73 -9 117 -28z"/>
<path d="M1816 2372 c-38 -9 -70 -52 -61 -81 10 -32 41 -40 130 -32 73 5 81 8
94 33 14 25 14 29 -5 55 -18 24 -28 28 -75 30 -30 0 -67 -2 -83 -5z"/>
<path d="M3390 2138 c-67 -26 -162 -117 -210 -201 -17 -31 -36 -59 -41 -62 -5
-3 -22 4 -39 17 -72 53 -215 16 -275 -70 -78 -114 6 -292 137 -292 52 0 80 25
76 68 -3 38 -9 42 -80 57 -20 4 -30 13 -35 33 -15 60 6 97 64 108 44 8 78 -21
96 -85 9 -35 19 -48 39 -55 36 -13 74 13 83 56 19 84 126 249 193 296 53 38
70 37 89 -3 14 -30 15 -42 5 -79 -19 -71 -77 -158 -162 -241 -88 -85 -101
-119 -58 -149 29 -20 52 -20 84 0 35 24 48 7 40 -51 -13 -84 -99 -153 -176
-140 -42 7 -63 25 -88 77 -31 61 -112 42 -112 -26 0 -33 47 -101 90 -131 56
-39 163 -47 231 -17 98 43 149 110 170 225 12 63 11 67 -15 122 -26 52 -27 57
-12 78 64 87 107 161 121 212 33 113 -2 213 -89 254 -55 25 -57 25 -126 -1z"/>
<path d="M1913 2000 c-36 -15 -45 -84 -13 -101 41 -21 216 -70 300 -85 52 -9
102 -20 112 -25 43 -23 88 5 88 54 0 42 -37 62 -151 81 -56 9 -149 32 -206 51
-57 19 -104 35 -106 34 -1 0 -12 -4 -24 -9z"/>
<path d="M1310 1915 c-165 -38 -332 -100 -357 -133 -29 -37 -4 -92 41 -92 12
0 61 16 109 35 47 20 142 50 209 67 132 33 172 57 161 98 -5 19 -40 51 -53 49
-3 0 -52 -11 -110 -24z"/>
<path d="M2639 1439 c-24 -24 -23 -28 15 -162 18 -64 21 -89 13 -92 -7 -2
-106 -9 -222 -15 -193 -9 -436 -31 -528 -46 -45 -7 -72 -41 -63 -79 10 -39 35
-46 118 -35 141 21 365 40 565 50 211 10 255 19 267 58 6 17 -9 89 -50 250
-23 88 -69 117 -115 71z"/>
<path d="M5189 1157 c-27 -18 -38 -36 -57 -97 -22 -68 -23 -88 -19 -212 l4
-136 -35 -24 c-51 -32 -74 -77 -74 -142 -1 -70 30 -126 100 -183 72 -59 115
-60 166 -3 40 45 43 56 20 88 -17 25 -53 29 -85 10 -18 -12 -24 -9 -55 26 -19
22 -34 50 -34 62 0 30 27 45 56 32 31 -15 73 -2 85 26 8 17 7 36 -6 77 -22 75
-31 252 -15 318 7 29 16 49 21 44 24 -25 70 -170 84 -268 21 -150 22 -154 50
-167 18 -8 33 -7 62 5 71 28 132 -12 133 -89 0 -46 -32 -74 -85 -74 -36 0 -48
-5 -61 -25 -20 -31 -11 -61 26 -80 37 -19 60 -19 112 2 92 36 127 84 128 176
1 127 -84 215 -220 229 -18 2 -26 10 -28 28 -14 124 -69 298 -109 342 -22 25
-86 58 -111 58 -11 0 -34 -10 -53 -23z"/>
<path d="M268 1154 c-75 -40 -87 -156 -30 -278 37 -79 38 -86 14 -86 -29 0
-107 -57 -122 -87 -22 -48 -28 -93 -18 -129 17 -62 110 -134 173 -134 42 0
101 36 115 69 25 62 -40 106 -98 65 -21 -14 -25 -14 -47 0 -46 30 -28 85 34
106 32 10 47 11 66 2 41 -19 82 -15 99 10 23 32 20 43 -17 85 -41 46 -107 166
-118 212 -10 44 -2 61 28 61 48 0 102 -80 147 -215 32 -99 83 -133 135 -90 20
18 40 25 58 23 26 -3 28 -7 31 -49 3 -43 0 -48 -43 -88 -49 -45 -55 -46 -138
-25 -60 15 -92 -65 -41 -105 33 -26 121 -37 169 -21 52 17 150 116 164 165 17
62 13 117 -11 165 -35 68 -66 85 -147 83 l-67 -2 -24 61 c-35 89 -99 171 -152
197 -52 24 -121 27 -160 5z"/>
<path d="M4443 1100 c-43 -19 -102 -96 -103 -132 0 -22 -2 -22 -87 -2 -93 22
-162 15 -208 -20 -43 -33 -59 -68 -51 -114 15 -94 114 -160 257 -169 77 -6 79
-7 79 -32 1 -35 32 -101 62 -128 26 -24 106 -53 149 -53 98 0 188 111 189 232
0 70 -25 106 -83 115 -72 11 -115 -63 -61 -106 32 -25 27 -58 -14 -96 -29 -28
-56 -27 -99 1 -29 18 -29 29 2 66 29 35 32 58 8 86 -15 16 -39 21 -159 30
-152 11 -204 27 -204 62 0 16 7 20 33 20 17 0 48 -5 67 -11 219 -66 257 -59
244 49 -5 47 -3 57 17 78 43 46 149 15 149 -44 0 -15 -5 -33 -12 -40 -16 -16
5 -59 36 -74 49 -22 96 39 96 124 0 131 -170 219 -307 158z"/>
<path d="M3322 1085 c-41 -18 -97 -77 -127 -137 -26 -50 -65 -179 -65 -215 0
-21 -4 -23 -50 -22 -63 2 -105 -24 -153 -96 -35 -51 -37 -131 -6 -182 21 -33
102 -83 160 -96 31 -8 71 19 94 63 29 57 -25 110 -81 80 -20 -11 -28 -11 -48
0 -14 7 -28 20 -31 28 -7 18 34 82 53 82 7 0 34 -16 59 -35 49 -37 78 -43 108
-21 16 11 18 28 19 127 1 127 26 224 73 279 26 32 72 41 90 18 33 -41 20 -211
-25 -342 -29 -84 -29 -108 2 -128 22 -15 65 -8 76 13 16 29 54 22 58 -11 4
-37 -33 -74 -67 -65 -75 19 -89 18 -106 -9 -21 -32 -13 -57 28 -92 28 -23 37
-26 85 -21 161 17 236 183 135 299 -8 9 -28 20 -44 23 -34 8 -33 3 -14 131 17
111 12 190 -15 244 -24 46 -47 66 -99 85 -53 18 -67 18 -109 0z"/>
</g>
</svg>
